<svg xmlns="http://www.w3.org/2000/svg" width="192" height="192" viewBox="0 0 192 192" version="1.1"><path d="M 32.914 14.933 L 29.981 17.865 30.241 67.183 L 30.500 116.500 96 116.500 L 161.500 116.500 161.759 67.183 L 162.019 17.865 159.086 14.933 L 156.154 12 96 12 L 35.846 12 32.914 14.933 M 33.636 15.636 L 31 18.273 31 67.136 L 31 116 96 116 L 161 116 161 67.305 L 161 18.609 158.313 15.805 L 155.626 13 95.949 13 L 36.273 13 33.636 15.636 M 67.750 17.749 C 83.288 17.904, 108.713 17.904, 124.250 17.749 C 139.788 17.594, 127.075 17.468, 96 17.468 C 64.925 17.468, 52.213 17.594, 67.750 17.749 M 36 19.059 C 36 19.641, 36.450 19.840, 37 19.500 C 37.550 19.160, 38 18.684, 38 18.441 C 38 18.198, 37.550 18, 37 18 C 36.450 18, 36 18.477, 36 19.059 M 154.500 19 C 154.840 19.550, 155.316 20, 155.559 20 C 155.802 20, 156 19.550, 156 19 C 156 18.450, 155.523 18, 154.941 18 C 154.359 18, 154.160 18.450, 154.500 19 M 35.458 64.500 C 35.459 88.150, 35.590 97.682, 35.749 85.682 C 35.909 73.683, 35.909 54.333, 35.749 42.682 C 35.589 31.032, 35.458 40.850, 35.458 64.500 M 156.458 64.500 C 156.459 88.150, 156.590 97.682, 156.749 85.682 C 156.909 73.683, 156.909 54.333, 156.749 42.682 C 156.589 31.032, 156.458 40.850, 156.458 64.500 M 57.333 32.667 C 57.700 33.033, 58.300 33.033, 58.667 32.667 C 59.033 32.300, 58.733 32, 58 32 C 57.267 32, 56.967 32.300, 57.333 32.667 M 91.333 32.667 C 91.700 33.033, 92.300 33.033, 92.667 32.667 C 93.033 32.300, 92.733 32, 92 32 C 91.267 32, 90.967 32.300, 91.333 32.667 M 51.703 36.792 C 49.666 38.878, 48 41.262, 48 42.089 C 48 42.917, 49.913 45.373, 52.250 47.547 L 56.500 51.500 52.750 47.458 C 50.688 45.235, 49 42.779, 49 42 C 49 41.221, 50.666 38.878, 52.703 36.792 C 54.740 34.706, 56.181 33, 55.906 33 C 55.631 33, 53.740 34.706, 51.703 36.792 M 97.250 36.542 C 99.313 38.765, 101 41.221, 101 42 C 101 42.779, 99.313 45.235, 97.250 47.458 L 93.500 51.500 97.750 47.547 C 100.088 45.373, 102 42.877, 102 42 C 102 41.123, 100.088 38.627, 97.750 36.453 L 93.500 32.500 97.250 36.542 M 60 35 C 60 35.733, 60.300 36.033, 60.667 35.667 C 61.033 35.300, 61.033 34.700, 60.667 34.333 C 60.300 33.967, 60 34.267, 60 35 M 89 35 C 89 35.733, 89.300 36.033, 89.667 35.667 C 90.033 35.300, 90.033 34.700, 89.667 34.333 C 89.300 33.967, 89 34.267, 89 35 M 57.872 38.750 C 56.629 40.336, 56.664 40.371, 58.250 39.128 C 59.212 38.373, 60 37.585, 60 37.378 C 60 36.555, 59.179 37.084, 57.872 38.750 M 90 37.378 C 90 37.585, 90.787 38.373, 91.750 39.128 C 93.336 40.371, 93.371 40.336, 92.128 38.750 C 90.821 37.084, 90 36.555, 90 37.378 M 56 42 C 56 42.733, 56.300 43.033, 56.667 42.667 C 57.033 42.300, 57.033 41.700, 56.667 41.333 C 56.300 40.967, 56 41.267, 56 42 M 93 42 C 93 42.733, 93.300 43.033, 93.667 42.667 C 94.033 42.300, 94.033 41.700, 93.667 41.333 C 93.300 40.967, 93 41.267, 93 42 M 57 44.378 C 57 44.585, 57.788 45.373, 58.750 46.128 C 60.336 47.371, 60.371 47.336, 59.128 45.750 C 57.821 44.084, 57 43.555, 57 44.378 M 90.872 45.750 C 89.629 47.336, 89.664 47.371, 91.250 46.128 C 92.916 44.821, 93.445 44, 92.622 44 C 92.415 44, 91.627 44.788, 90.872 45.750 M 121.211 46.399 C 121.920 47.169, 122.658 47.649, 122.850 47.466 C 123.443 46.902, 121.940 45, 120.902 45 C 120.362 45, 120.501 45.630, 121.211 46.399 M 60 49 C 60 49.733, 60.300 50.033, 60.667 49.667 C 61.033 49.300, 61.033 48.700, 60.667 48.333 C 60.300 47.967, 60 48.267, 60 49 M 89 49 C 89 49.733, 89.300 50.033, 89.667 49.667 C 90.033 49.300, 90.033 48.700, 89.667 48.333 C 89.300 47.967, 89 48.267, 89 49 M 57.333 51.667 C 57.700 52.033, 58.300 52.033, 58.667 51.667 C 59.033 51.300, 58.733 51, 58 51 C 57.267 51, 56.967 51.300, 57.333 51.667 M 91.333 51.667 C 91.700 52.033, 92.300 52.033, 92.667 51.667 C 93.033 51.300, 92.733 51, 92 51 C 91.267 51, 90.967 51.300, 91.333 51.667 M 96.333 74.667 C 96.700 75.033, 97.300 75.033, 97.667 74.667 C 98.033 74.300, 97.733 74, 97 74 C 96.267 74, 95.967 74.300, 96.333 74.667 M 130.333 74.667 C 130.700 75.033, 131.300 75.033, 131.667 74.667 C 132.033 74.300, 131.733 74, 131 74 C 130.267 74, 129.967 74.300, 130.333 74.667 M 90.703 78.792 C 88.666 80.878, 87 83.262, 87 84.089 C 87 84.917, 88.912 87.373, 91.250 89.547 L 95.500 93.500 91.750 89.458 C 89.688 87.235, 88 84.779, 88 84 C 88 83.221, 89.666 80.878, 91.703 78.792 C 93.740 76.706, 95.181 75, 94.906 75 C 94.631 75, 92.740 76.706, 90.703 78.792 M 112.872 76.750 C 111.629 78.336, 111.664 78.371, 113.250 77.128 C 114.916 75.821, 115.445 75, 114.622 75 C 114.415 75, 113.627 75.787, 112.872 76.750 M 117.564 76.293 C 117.940 77.279, 118.499 77.834, 118.807 77.526 C 119.115 77.219, 118.808 76.412, 118.124 75.733 C 117.136 74.753, 117.022 74.868, 117.564 76.293 M 136.250 78.542 C 138.313 80.765, 140 83.221, 140 84 C 140 84.779, 138.313 87.235, 136.250 89.458 L 132.500 93.500 136.750 89.547 C 139.088 87.373, 141 84.877, 141 84 C 141 83.123, 139.088 80.627, 136.750 78.453 L 132.500 74.500 136.250 78.542 M 99 77 C 99 77.733, 99.300 78.033, 99.667 77.667 C 100.033 77.300, 100.033 76.700, 99.667 76.333 C 99.300 75.967, 99 76.267, 99 77 M 128 77 C 128 77.733, 128.300 78.033, 128.667 77.667 C 129.033 77.300, 129.033 76.700, 128.667 76.333 C 128.300 75.967, 128 76.267, 128 77 M 96.872 80.750 C 95.629 82.336, 95.664 82.371, 97.250 81.128 C 98.916 79.821, 99.445 79, 98.622 79 C 98.415 79, 97.627 79.787, 96.872 80.750 M 117 80 C 117 80.733, 117.300 81.033, 117.667 80.667 C 118.033 80.300, 118.033 79.700, 117.667 79.333 C 117.300 78.967, 117 79.267, 117 80 M 129 79.378 C 129 79.585, 129.787 80.373, 130.750 81.128 C 132.336 82.371, 132.371 82.336, 131.128 80.750 C 129.821 79.084, 129 78.555, 129 79.378 M 109.564 82.707 C 109.022 84.132, 109.136 84.247, 110.124 83.267 C 110.808 82.588, 111.115 81.781, 110.807 81.474 C 110.499 81.166, 109.940 81.721, 109.564 82.707 M 95 84 C 95 84.733, 95.300 85.033, 95.667 84.667 C 96.033 84.300, 96.033 83.700, 95.667 83.333 C 95.300 82.967, 95 83.267, 95 84 M 132 84 C 132 84.733, 132.300 85.033, 132.667 84.667 C 133.033 84.300, 133.033 83.700, 132.667 83.333 C 132.300 82.967, 132 83.267, 132 84 M 114.459 85.067 C 114.096 85.653, 114.014 86.348, 114.276 86.610 C 114.538 86.872, 115.019 86.392, 115.345 85.543 C 116.021 83.781, 115.445 83.471, 114.459 85.067 M 96 86.378 C 96 86.585, 96.787 87.373, 97.750 88.128 C 99.336 89.371, 99.371 89.336, 98.128 87.750 C 96.821 86.084, 96 85.555, 96 86.378 M 129.872 87.750 C 128.629 89.336, 128.664 89.371, 130.250 88.128 C 131.213 87.373, 132 86.585, 132 86.378 C 132 85.555, 131.179 86.084, 129.872 87.750 M 107 88 C 107 88.733, 107.300 89.033, 107.667 88.667 C 108.033 88.300, 108.033 87.700, 107.667 87.333 C 107.300 86.967, 107 87.267, 107 88 M 99 91 C 99 91.733, 99.300 92.033, 99.667 91.667 C 100.033 91.300, 100.033 90.700, 99.667 90.333 C 99.300 89.967, 99 90.267, 99 91 M 106 90.941 C 106 91.459, 106.445 92.157, 106.989 92.493 C 107.555 92.843, 107.723 92.442, 107.382 91.552 C 106.717 89.820, 106 89.503, 106 90.941 M 110.872 91.750 C 109.629 93.336, 109.664 93.371, 111.250 92.128 C 112.916 90.821, 113.445 90, 112.622 90 C 112.415 90, 111.627 90.787, 110.872 91.750 M 128 91 C 128 91.733, 128.300 92.033, 128.667 91.667 C 129.033 91.300, 129.033 90.700, 128.667 90.333 C 128.300 89.967, 128 90.267, 128 91 M 96.333 93.667 C 96.700 94.033, 97.300 94.033, 97.667 93.667 C 98.033 93.300, 97.733 93, 97 93 C 96.267 93, 95.967 93.300, 96.333 93.667 M 130.333 93.667 C 130.700 94.033, 131.300 94.033, 131.667 93.667 C 132.033 93.300, 131.733 93, 131 93 C 130.267 93, 129.967 93.300, 130.333 93.667 M 36 110 C 36 110.550, 36.477 111, 37.059 111 C 37.641 111, 37.840 110.550, 37.500 110 C 37.160 109.450, 36.684 109, 36.441 109 C 36.198 109, 36 109.450, 36 110 M 154.500 110 C 154.160 110.550, 154.359 111, 154.941 111 C 155.523 111, 156 110.550, 156 110 C 156 109.450, 155.802 109, 155.559 109 C 155.316 109, 154.840 109.450, 154.500 110 M 67.750 111.749 C 83.288 111.904, 108.713 111.904, 124.250 111.749 C 139.788 111.594, 127.075 111.468, 96 111.468 C 64.925 111.468, 52.213 111.594, 67.750 111.749 M 28.571 124.571 C 27.707 125.436, 27.007 126.898, 27.015 127.821 C 27.025 128.971, 27.428 128.712, 28.294 127 L 29.559 124.500 96 124.500 L 162.441 124.500 163.706 127 C 164.572 128.712, 164.975 128.971, 164.985 127.821 C 164.993 126.898, 164.293 125.436, 163.429 124.571 C 162.032 123.175, 154.537 123, 96 123 C 37.463 123, 29.968 123.175, 28.571 124.571 M 38.333 128.667 C 38.700 129.033, 39.300 129.033, 39.667 128.667 C 40.033 128.300, 39.733 128, 39 128 C 38.267 128, 37.967 128.300, 38.333 128.667 M 50.333 128.667 C 50.700 129.033, 51.300 129.033, 51.667 128.667 C 52.033 128.300, 51.733 128, 51 128 C 50.267 128, 49.967 128.300, 50.333 128.667 M 66.750 128.706 C 67.987 128.944, 70.013 128.944, 71.250 128.706 C 72.487 128.467, 71.475 128.272, 69 128.272 C 66.525 128.272, 65.513 128.467, 66.750 128.706 M 87.750 128.706 C 88.987 128.944, 91.013 128.944, 92.250 128.706 C 93.487 128.467, 92.475 128.272, 90 128.272 C 87.525 128.272, 86.513 128.467, 87.750 128.706 M 108.750 128.706 C 109.987 128.944, 112.013 128.944, 113.250 128.706 C 114.487 128.467, 113.475 128.272, 111 128.272 C 108.525 128.272, 107.513 128.467, 108.750 128.706 M 129.750 128.706 C 130.988 128.944, 133.012 128.944, 134.250 128.706 C 135.488 128.467, 134.475 128.272, 132 128.272 C 129.525 128.272, 128.512 128.467, 129.750 128.706 M 150.750 128.706 C 151.988 128.944, 154.012 128.944, 155.250 128.706 C 156.488 128.467, 155.475 128.272, 153 128.272 C 150.525 128.272, 149.512 128.467, 150.750 128.706 M 25.212 132.434 C 23.464 136.270, 23.729 138.042, 25.534 134.583 C 26.370 132.978, 26.913 131.240, 26.740 130.719 C 26.566 130.199, 25.879 130.970, 25.212 132.434 M 165.035 130.636 C 165.016 131.260, 165.672 133.060, 166.494 134.636 C 167.315 136.211, 167.975 136.825, 167.958 136 C 167.923 134.206, 165.086 129, 165.035 130.636 M 35 132 C 35 132.733, 35.300 133.033, 35.667 132.667 C 36.033 132.300, 36.033 131.700, 35.667 131.333 C 35.300 130.967, 35 131.267, 35 132 M 42 132 C 42 132.733, 42.300 133.033, 42.667 132.667 C 43.033 132.300, 43.033 131.700, 42.667 131.333 C 42.300 130.967, 42 131.267, 42 132 M 47 132 C 47 132.733, 47.300 133.033, 47.667 132.667 C 48.033 132.300, 48.033 131.700, 47.667 131.333 C 47.300 130.967, 47 131.267, 47 132 M 54 132 C 54 132.733, 54.300 133.033, 54.667 132.667 C 55.033 132.300, 55.033 131.700, 54.667 131.333 C 54.300 130.967, 54 131.267, 54 132 M 62 132 C 62 132.733, 62.300 133.033, 62.667 132.667 C 63.033 132.300, 63.033 131.700, 62.667 131.333 C 62.300 130.967, 62 131.267, 62 132 M 75 132 C 75 132.733, 75.300 133.033, 75.667 132.667 C 76.033 132.300, 76.033 131.700, 75.667 131.333 C 75.300 130.967, 75 131.267, 75 132 M 83 132 C 83 132.733, 83.300 133.033, 83.667 132.667 C 84.033 132.300, 84.033 131.700, 83.667 131.333 C 83.300 130.967, 83 131.267, 83 132 M 96 132 C 96 132.733, 96.300 133.033, 96.667 132.667 C 97.033 132.300, 97.033 131.700, 96.667 131.333 C 96.300 130.967, 96 131.267, 96 132 M 104 132 C 104 132.733, 104.300 133.033, 104.667 132.667 C 105.033 132.300, 105.033 131.700, 104.667 131.333 C 104.300 130.967, 104 131.267, 104 132 M 117 132 C 117 132.733, 117.300 133.033, 117.667 132.667 C 118.033 132.300, 118.033 131.700, 117.667 131.333 C 117.300 130.967, 117 131.267, 117 132 M 125 132 C 125 132.733, 125.300 133.033, 125.667 132.667 C 126.033 132.300, 126.033 131.700, 125.667 131.333 C 125.300 130.967, 125 131.267, 125 132 M 138 132 C 138 132.733, 138.300 133.033, 138.667 132.667 C 139.033 132.300, 139.033 131.700, 138.667 131.333 C 138.300 130.967, 138 131.267, 138 132 M 146 132 C 146 132.733, 146.300 133.033, 146.667 132.667 C 147.033 132.300, 147.033 131.700, 146.667 131.333 C 146.300 130.967, 146 131.267, 146 132 M 159 132 C 159 132.733, 159.300 133.033, 159.667 132.667 C 160.033 132.300, 160.033 131.700, 159.667 131.333 C 159.300 130.967, 159 131.267, 159 132 M 38.333 135.667 C 38.700 136.033, 39.300 136.033, 39.667 135.667 C 40.033 135.300, 39.733 135, 39 135 C 38.267 135, 37.967 135.300, 38.333 135.667 M 50.333 135.667 C 50.700 136.033, 51.300 136.033, 51.667 135.667 C 52.033 135.300, 51.733 135, 51 135 C 50.267 135, 49.967 135.300, 50.333 135.667 M 66.750 135.706 C 67.987 135.944, 70.013 135.944, 71.250 135.706 C 72.487 135.467, 71.475 135.272, 69 135.272 C 66.525 135.272, 65.513 135.467, 66.750 135.706 M 87.750 135.706 C 88.987 135.944, 91.013 135.944, 92.250 135.706 C 93.487 135.467, 92.475 135.272, 90 135.272 C 87.525 135.272, 86.513 135.467, 87.750 135.706 M 108.750 135.706 C 109.987 135.944, 112.013 135.944, 113.250 135.706 C 114.487 135.467, 113.475 135.272, 111 135.272 C 108.525 135.272, 107.513 135.467, 108.750 135.706 M 129.750 135.706 C 130.988 135.944, 133.012 135.944, 134.250 135.706 C 135.488 135.467, 134.475 135.272, 132 135.272 C 129.525 135.272, 128.512 135.467, 129.750 135.706 M 150.750 135.706 C 151.988 135.944, 154.012 135.944, 155.250 135.706 C 156.488 135.467, 155.475 135.272, 153 135.272 C 150.525 135.272, 149.512 135.467, 150.750 135.706 M 22.212 140.434 C 20.464 144.270, 20.729 146.042, 22.534 142.583 C 23.370 140.978, 23.913 139.240, 23.740 138.719 C 23.566 138.199, 22.879 138.970, 22.212 140.434 M 168.035 138.636 C 168.016 139.260, 168.672 141.060, 169.494 142.636 C 170.315 144.211, 170.975 144.825, 170.958 144 C 170.923 142.206, 168.086 137, 168.035 138.636 M 35.250 140.728 C 37.313 140.944, 40.688 140.944, 42.750 140.728 C 44.813 140.513, 43.125 140.336, 39 140.336 C 34.875 140.336, 33.188 140.513, 35.250 140.728 M 60.750 140.706 C 61.987 140.944, 64.013 140.944, 65.250 140.706 C 66.487 140.467, 65.475 140.272, 63 140.272 C 60.525 140.272, 59.513 140.467, 60.750 140.706 M 81.750 140.706 C 82.987 140.944, 85.013 140.944, 86.250 140.706 C 87.487 140.467, 86.475 140.272, 84 140.272 C 81.525 140.272, 80.513 140.467, 81.750 140.706 M 102.750 140.706 C 103.987 140.944, 106.013 140.944, 107.250 140.706 C 108.487 140.467, 107.475 140.272, 105 140.272 C 102.525 140.272, 101.513 140.467, 102.750 140.706 M 123.750 140.706 C 124.987 140.944, 127.013 140.944, 128.250 140.706 C 129.488 140.467, 128.475 140.272, 126 140.272 C 123.525 140.272, 122.513 140.467, 123.750 140.706 M 147.280 140.736 C 149.909 140.943, 153.959 140.940, 156.280 140.731 C 158.601 140.521, 156.450 140.352, 151.500 140.355 C 146.550 140.358, 144.651 140.530, 147.280 140.736 M 29 144 C 29 144.733, 29.300 145.033, 29.667 144.667 C 30.033 144.300, 30.033 143.700, 29.667 143.333 C 29.300 142.967, 29 143.267, 29 144 M 48 144 C 48 144.733, 48.300 145.033, 48.667 144.667 C 49.033 144.300, 49.033 143.700, 48.667 143.333 C 48.300 142.967, 48 143.267, 48 144 M 56 144 C 56 144.733, 56.300 145.033, 56.667 144.667 C 57.033 144.300, 57.033 143.700, 56.667 143.333 C 56.300 142.967, 56 143.267, 56 144 M 69 144 C 69 144.733, 69.300 145.033, 69.667 144.667 C 70.033 144.300, 70.033 143.700, 69.667 143.333 C 69.300 142.967, 69 143.267, 69 144 M 77 144 C 77 144.733, 77.300 145.033, 77.667 144.667 C 78.033 144.300, 78.033 143.700, 77.667 143.333 C 77.300 142.967, 77 143.267, 77 144 M 90 144 C 90 144.733, 90.300 145.033, 90.667 144.667 C 91.033 144.300, 91.033 143.700, 90.667 143.333 C 90.300 142.967, 90 143.267, 90 144 M 98 144 C 98 144.733, 98.300 145.033, 98.667 144.667 C 99.033 144.300, 99.033 143.700, 98.667 143.333 C 98.300 142.967, 98 143.267, 98 144 M 111 144 C 111 144.733, 111.300 145.033, 111.667 144.667 C 112.033 144.300, 112.033 143.700, 111.667 143.333 C 111.300 142.967, 111 143.267, 111 144 M 119 144 C 119 144.733, 119.300 145.033, 119.667 144.667 C 120.033 144.300, 120.033 143.700, 119.667 143.333 C 119.300 142.967, 119 143.267, 119 144 M 132 144 C 132 144.733, 132.300 145.033, 132.667 144.667 C 133.033 144.300, 133.033 143.700, 132.667 143.333 C 132.300 142.967, 132 143.267, 132 144 M 140 144 C 140 144.733, 140.300 145.033, 140.667 144.667 C 141.033 144.300, 141.033 143.700, 140.667 143.333 C 140.300 142.967, 140 143.267, 140 144 M 162 144 C 162 144.733, 162.300 145.033, 162.667 144.667 C 163.033 144.300, 163.033 143.700, 162.667 143.333 C 162.300 142.967, 162 143.267, 162 144 M 19.212 148.434 C 17.464 152.270, 17.729 154.042, 19.534 150.583 C 20.370 148.978, 20.913 147.240, 20.740 146.719 C 20.566 146.199, 19.879 146.970, 19.212 148.434 M 171.035 146.636 C 171.016 147.260, 171.672 149.060, 172.494 150.636 C 173.315 152.211, 173.975 152.825, 173.958 152 C 173.923 150.206, 171.086 145, 171.035 146.636 M 35.250 147.728 C 37.313 147.944, 40.688 147.944, 42.750 147.728 C 44.813 147.513, 43.125 147.336, 39 147.336 C 34.875 147.336, 33.188 147.513, 35.250 147.728 M 60.750 147.706 C 61.987 147.944, 64.013 147.944, 65.250 147.706 C 66.487 147.467, 65.475 147.272, 63 147.272 C 60.525 147.272, 59.513 147.467, 60.750 147.706 M 81.750 147.706 C 82.987 147.944, 85.013 147.944, 86.250 147.706 C 87.487 147.467, 86.475 147.272, 84 147.272 C 81.525 147.272, 80.513 147.467, 81.750 147.706 M 102.750 147.706 C 103.987 147.944, 106.013 147.944, 107.250 147.706 C 108.487 147.467, 107.475 147.272, 105 147.272 C 102.525 147.272, 101.513 147.467, 102.750 147.706 M 123.750 147.706 C 124.987 147.944, 127.013 147.944, 128.250 147.706 C 129.488 147.467, 128.475 147.272, 126 147.272 C 123.525 147.272, 122.513 147.467, 123.750 147.706 M 147.280 147.736 C 149.909 147.943, 153.959 147.940, 156.280 147.731 C 158.601 147.521, 156.450 147.352, 151.500 147.355 C 146.550 147.358, 144.651 147.530, 147.280 147.736 M 30.750 152.706 C 31.988 152.944, 34.013 152.944, 35.250 152.706 C 36.487 152.467, 35.475 152.272, 33 152.272 C 30.525 152.272, 29.512 152.467, 30.750 152.706 M 51.750 152.706 C 52.987 152.944, 55.013 152.944, 56.250 152.706 C 57.487 152.467, 56.475 152.272, 54 152.272 C 51.525 152.272, 50.513 152.467, 51.750 152.706 M 83.250 152.747 C 90.263 152.919, 101.738 152.919, 108.750 152.747 C 115.763 152.575, 110.025 152.435, 96 152.435 C 81.975 152.435, 76.238 152.575, 83.250 152.747 M 135.750 152.706 C 136.988 152.944, 139.012 152.944, 140.250 152.706 C 141.488 152.467, 140.475 152.272, 138 152.272 C 135.525 152.272, 134.512 152.467, 135.750 152.706 M 156.750 152.706 C 157.988 152.944, 160.012 152.944, 161.250 152.706 C 162.488 152.467, 161.475 152.272, 159 152.272 C 156.525 152.272, 155.512 152.467, 156.750 152.706 M 16.212 156.434 C 14.464 160.270, 14.729 162.042, 16.534 158.583 C 17.370 156.978, 17.913 155.240, 17.740 154.719 C 17.566 154.199, 16.879 154.970, 16.212 156.434 M 174.035 154.636 C 174.016 155.260, 174.672 157.060, 175.494 158.636 C 176.315 160.211, 176.975 160.825, 176.958 160 C 176.923 158.206, 174.086 153, 174.035 154.636 M 26 156 C 26 156.733, 26.300 157.033, 26.667 156.667 C 27.033 156.300, 27.033 155.700, 26.667 155.333 C 26.300 154.967, 26 155.267, 26 156 M 39 156 C 39 156.733, 39.300 157.033, 39.667 156.667 C 40.033 156.300, 40.033 155.700, 39.667 155.333 C 39.300 154.967, 39 155.267, 39 156 M 47 156 C 47 156.733, 47.300 157.033, 47.667 156.667 C 48.033 156.300, 48.033 155.700, 47.667 155.333 C 47.300 154.967, 47 155.267, 47 156 M 60 156 C 60 156.733, 60.300 157.033, 60.667 156.667 C 61.033 156.300, 61.033 155.700, 60.667 155.333 C 60.300 154.967, 60 155.267, 60 156 M 68 156 C 68 156.733, 68.300 157.033, 68.667 156.667 C 69.033 156.300, 69.033 155.700, 68.667 155.333 C 68.300 154.967, 68 155.267, 68 156 M 123 156 C 123 156.733, 123.300 157.033, 123.667 156.667 C 124.033 156.300, 124.033 155.700, 123.667 155.333 C 123.300 154.967, 123 155.267, 123 156 M 131 156 C 131 156.733, 131.300 157.033, 131.667 156.667 C 132.033 156.300, 132.033 155.700, 131.667 155.333 C 131.300 154.967, 131 155.267, 131 156 M 144 156 C 144 156.733, 144.300 157.033, 144.667 156.667 C 145.033 156.300, 145.033 155.700, 144.667 155.333 C 144.300 154.967, 144 155.267, 144 156 M 152 156 C 152 156.733, 152.300 157.033, 152.667 156.667 C 153.033 156.300, 153.033 155.700, 152.667 155.333 C 152.300 154.967, 152 155.267, 152 156 M 165 156 C 165 156.733, 165.300 157.033, 165.667 156.667 C 166.033 156.300, 166.033 155.700, 165.667 155.333 C 165.300 154.967, 165 155.267, 165 156 M 30.750 159.706 C 31.988 159.944, 34.013 159.944, 35.250 159.706 C 36.487 159.467, 35.475 159.272, 33 159.272 C 30.525 159.272, 29.512 159.467, 30.750 159.706 M 51.750 159.706 C 52.987 159.944, 55.013 159.944, 56.250 159.706 C 57.487 159.467, 56.475 159.272, 54 159.272 C 51.525 159.272, 50.513 159.467, 51.750 159.706 M 83.250 159.747 C 90.263 159.919, 101.738 159.919, 108.750 159.747 C 115.763 159.575, 110.025 159.435, 96 159.435 C 81.975 159.435, 76.238 159.575, 83.250 159.747 M 135.750 159.706 C 136.988 159.944, 139.012 159.944, 140.250 159.706 C 141.488 159.467, 140.475 159.272, 138 159.272 C 135.525 159.272, 134.512 159.467, 135.750 159.706 M 156.750 159.706 C 157.988 159.944, 160.012 159.944, 161.250 159.706 C 162.488 159.467, 161.475 159.272, 159 159.272 C 156.525 159.272, 155.512 159.467, 156.750 159.706 M 14.257 163 C 14.608 164.288, 18.686 164.503, 43.083 164.524 L 71.500 164.549 43.549 164.258 C 22.802 164.043, 15.372 163.650, 14.723 162.734 C 14.085 161.834, 13.959 161.906, 14.257 163 M 177 162.833 C 177 163.689, 169.474 164.062, 148.750 164.234 L 120.500 164.467 148.434 164.750 C 174.567 165.014, 179.909 164.576, 177.683 162.350 C 177.308 161.974, 177 162.192, 177 162.833 M 74.559 166.468 C 76.112 167.643, 80.402 167.936, 96 167.936 C 111.598 167.936, 115.888 167.643, 117.441 166.468 C 118.509 165.661, 118.873 165, 118.250 165 C 117.627 165, 116.840 165.450, 116.500 166 C 116.122 166.612, 108.176 167, 96 167 C 83.824 167, 75.878 166.612, 75.500 166 C 75.160 165.450, 74.373 165, 73.750 165 C 73.127 165, 73.491 165.661, 74.559 166.468 M 12.513 171.979 C 11.684 173.321, 13.552 176.573, 16.230 178.449 C 18.185 179.818, 27.570 180, 96.299 180 L 174.154 180 177.159 176.995 C 178.811 175.343, 179.977 173.430, 179.749 172.745 C 179.433 171.798, 172.348 171.437, 150.111 171.235 C 125.094 171.008, 120.669 171.188, 119.372 172.485 C 117.134 174.723, 74.880 174.737, 72.643 172.500 C 71.378 171.236, 66.586 171, 42.130 171 C 24.276 171, 12.885 171.377, 12.513 171.979" stroke="none" fill="#5f48ab" fill-rule="evenodd"/><path d="M 33.636 15.636 L 31 18.273 31 67.136 L 31 116 96 116 L 161 116 161 67.305 L 161 18.609 158.313 15.805 L 155.626 13 95.949 13 L 36.273 13 33.636 15.636 M 38.302 17.683 C 36.591 18.027, 35.968 19.054, 35.493 22.313 C 34.588 28.511, 35.361 109.696, 36.333 110.668 C 37.423 111.756, 154.578 111.755, 155.667 110.667 C 156.755 109.578, 156.756 19.423, 155.667 18.333 C 154.824 17.490, 42.360 16.867, 38.302 17.683 M 59 32.378 C 59 32.585, 59.788 33.373, 60.750 34.128 C 62.336 35.371, 62.371 35.336, 61.128 33.750 C 59.821 32.084, 59 31.555, 59 32.378 M 88.872 33.750 C 87.629 35.336, 87.664 35.371, 89.250 34.128 C 90.916 32.821, 91.445 32, 90.622 32 C 90.415 32, 89.627 32.788, 88.872 33.750 M 59.872 50.750 C 58.629 52.336, 58.664 52.371, 60.250 51.128 C 61.212 50.373, 62 49.585, 62 49.378 C 62 48.555, 61.179 49.084, 59.872 50.750 M 88 49.378 C 88 49.585, 88.787 50.373, 89.750 51.128 C 91.336 52.371, 91.371 52.336, 90.128 50.750 C 88.821 49.084, 88 48.555, 88 49.378 M 98 74.378 C 98 74.585, 98.787 75.373, 99.750 76.128 C 101.336 77.371, 101.371 77.336, 100.128 75.750 C 98.821 74.084, 98 73.555, 98 74.378 M 115.333 74.667 C 115.700 75.033, 116.300 75.033, 116.667 74.667 C 117.033 74.300, 116.733 74, 116 74 C 115.267 74, 114.967 74.300, 115.333 74.667 M 127.872 75.750 C 126.629 77.336, 126.664 77.371, 128.250 76.128 C 129.916 74.821, 130.445 74, 129.622 74 C 129.415 74, 128.627 74.787, 127.872 75.750 M 112.405 76.155 C 111.962 76.870, 112.130 77.038, 112.845 76.595 C 113.480 76.203, 114 75.684, 114 75.441 C 114 74.607, 113.117 75.002, 112.405 76.155 M 98.872 92.750 C 97.629 94.336, 97.664 94.371, 99.250 93.128 C 100.916 91.821, 101.445 91, 100.622 91 C 100.415 91, 99.627 91.787, 98.872 92.750 M 111.405 92.155 C 110.962 92.870, 111.130 93.038, 111.845 92.595 C 112.998 91.883, 113.393 91, 112.559 91 C 112.316 91, 111.797 91.520, 111.405 92.155 M 127 91.378 C 127 91.585, 127.787 92.373, 128.750 93.128 C 130.336 94.371, 130.371 94.336, 129.128 92.750 C 127.821 91.084, 127 90.555, 127 91.378 M 108.333 93.667 C 108.700 94.033, 109.300 94.033, 109.667 93.667 C 110.033 93.300, 109.733 93, 109 93 C 108.267 93, 107.967 93.300, 108.333 93.667 M 29.203 125.256 C 28.630 125.946, 27.830 127.829, 27.426 129.439 C 27.022 131.049, 26.088 133.522, 25.352 134.933 C 24.615 136.345, 24.010 138.261, 24.006 139.191 C 24.003 140.121, 23.585 141.139, 23.077 141.452 C 22.569 141.766, 21.852 143.398, 21.483 145.079 C 21.114 146.760, 20.182 149.342, 19.412 150.817 C 18.642 152.293, 18.010 154.011, 18.006 154.636 C 18.003 155.260, 17.328 157.060, 16.506 158.636 C 15.685 160.211, 15.010 162.038, 15.006 162.694 C 15.002 163.587, 22.454 163.966, 44.452 164.194 C 66.337 164.422, 74.224 164.821, 75.152 165.750 C 76.065 166.665, 81.653 167, 96 167 C 110.347 167, 115.935 166.665, 116.848 165.750 C 117.776 164.821, 125.663 164.422, 147.548 164.194 C 169.546 163.966, 176.998 163.587, 176.994 162.694 C 176.990 162.038, 176.315 160.211, 175.494 158.636 C 174.672 157.060, 173.997 155.260, 173.994 154.636 C 173.990 154.011, 173.358 152.293, 172.588 150.817 C 171.818 149.342, 170.886 146.760, 170.517 145.079 C 170.148 143.398, 169.431 141.766, 168.923 141.452 C 168.415 141.139, 167.997 140.121, 167.994 139.191 C 167.990 138.261, 167.385 136.345, 166.648 134.933 C 165.912 133.522, 164.978 131.049, 164.574 129.439 C 164.170 127.829, 163.370 125.946, 162.797 125.256 C 161.274 123.420, 30.726 123.420, 29.203 125.256 M 36.571 129.571 C 35.707 130.436, 35 131.529, 35 132 C 35 133.111, 37.889 136, 39 136 C 40.111 136, 43 133.111, 43 132 C 43 130.889, 40.111 128, 39 128 C 38.529 128, 37.436 128.707, 36.571 129.571 M 48.571 129.571 C 47.707 130.436, 47 131.529, 47 132 C 47 133.111, 49.889 136, 51 136 C 52.111 136, 55 133.111, 55 132 C 55 130.889, 52.111 128, 51 128 C 50.529 128, 49.436 128.707, 48.571 129.571 M 63.571 129.571 C 62.707 130.436, 62 131.529, 62 132 C 62 134.048, 65.416 136, 69 136 C 72.584 136, 76 134.048, 76 132 C 76 129.952, 72.584 128, 69 128 C 66.827 128, 64.457 128.686, 63.571 129.571 M 84.571 129.571 C 83.707 130.436, 83 131.529, 83 132 C 83 134.048, 86.416 136, 90 136 C 93.584 136, 97 134.048, 97 132 C 97 129.952, 93.584 128, 90 128 C 87.827 128, 85.457 128.686, 84.571 129.571 M 105.571 129.571 C 104.707 130.436, 104 131.529, 104 132 C 104 134.048, 107.416 136, 111 136 C 114.584 136, 118 134.048, 118 132 C 118 129.952, 114.584 128, 111 128 C 108.827 128, 106.457 128.686, 105.571 129.571 M 126.571 129.571 C 125.707 130.436, 125 131.529, 125 132 C 125 134.048, 128.416 136, 132 136 C 135.584 136, 139 134.048, 139 132 C 139 129.952, 135.584 128, 132 128 C 129.827 128, 127.457 128.686, 126.571 129.571 M 147.571 129.571 C 146.707 130.436, 146 131.529, 146 132 C 146 134.048, 149.416 136, 153 136 C 156.584 136, 160 134.048, 160 132 C 160 129.952, 156.584 128, 153 128 C 150.827 128, 148.457 128.686, 147.571 129.571 M 30.571 141.571 C 28.598 143.545, 28.598 144.455, 30.571 146.429 C 31.694 147.552, 34.100 148, 39 148 C 45.570 148, 49 146.628, 49 144 C 49 141.372, 45.570 140, 39 140 C 34.100 140, 31.694 140.448, 30.571 141.571 M 57.571 141.571 C 56.707 142.436, 56 143.529, 56 144 C 56 146.048, 59.416 148, 63 148 C 66.584 148, 70 146.048, 70 144 C 70 141.952, 66.584 140, 63 140 C 60.827 140, 58.457 140.686, 57.571 141.571 M 78.571 141.571 C 77.707 142.436, 77 143.529, 77 144 C 77 146.048, 80.416 148, 84 148 C 87.584 148, 91 146.048, 91 144 C 91 141.952, 87.584 140, 84 140 C 81.827 140, 79.457 140.686, 78.571 141.571 M 99.571 141.571 C 98.707 142.436, 98 143.529, 98 144 C 98 146.048, 101.416 148, 105 148 C 108.584 148, 112 146.048, 112 144 C 112 141.952, 108.584 140, 105 140 C 102.827 140, 100.457 140.686, 99.571 141.571 M 120.571 141.571 C 119.707 142.436, 119 143.529, 119 144 C 119 146.048, 122.416 148, 126 148 C 129.584 148, 133 146.048, 133 144 C 133 141.952, 129.584 140, 126 140 C 123.827 140, 121.457 140.686, 120.571 141.571 M 141.571 141.571 C 140.707 142.436, 140 143.529, 140 144 C 140 144.471, 140.707 145.564, 141.571 146.429 C 142.749 147.606, 145.236 148, 151.500 148 C 157.764 148, 160.251 147.606, 161.429 146.429 C 162.293 145.564, 163 144.471, 163 144 C 163 143.529, 162.293 142.436, 161.429 141.571 C 160.251 140.394, 157.764 140, 151.500 140 C 145.236 140, 142.749 140.394, 141.571 141.571 M 27.571 153.571 C 26.707 154.436, 26 155.529, 26 156 C 26 158.048, 29.416 160, 33 160 C 36.584 160, 40 158.048, 40 156 C 40 153.952, 36.584 152, 33 152 C 30.827 152, 28.457 152.686, 27.571 153.571 M 48.571 153.571 C 47.707 154.436, 47 155.529, 47 156 C 47 158.048, 50.416 160, 54 160 C 57.584 160, 61 158.048, 61 156 C 61 153.952, 57.584 152, 54 152 C 51.827 152, 49.457 152.686, 48.571 153.571 M 69.571 153.571 C 68.707 154.436, 68 155.529, 68 156 C 68 156.471, 68.707 157.564, 69.571 158.429 C 70.916 159.773, 74.736 160, 96 160 C 117.264 160, 121.084 159.773, 122.429 158.429 C 124.402 156.455, 124.402 155.545, 122.429 153.571 C 121.084 152.227, 117.264 152, 96 152 C 74.736 152, 70.916 152.227, 69.571 153.571 M 132.571 153.571 C 131.707 154.436, 131 155.529, 131 156 C 131 158.048, 134.416 160, 138 160 C 141.584 160, 145 158.048, 145 156 C 145 153.952, 141.584 152, 138 152 C 135.827 152, 133.457 152.686, 132.571 153.571 M 153.571 153.571 C 152.707 154.436, 152 155.529, 152 156 C 152 158.048, 155.416 160, 159 160 C 162.584 160, 166 158.048, 166 156 C 166 153.952, 162.584 152, 159 152 C 156.827 152, 154.457 152.686, 153.571 153.571" stroke="none" fill="#6091df" fill-rule="evenodd"/><path d="M 42.460 25.244 C 42.194 25.937, 42.094 44.054, 42.238 65.502 L 42.500 104.500 96 104.500 L 149.500 104.500 149.500 64.500 L 149.500 24.500 96.222 24.241 C 54.080 24.037, 42.843 24.246, 42.460 25.244 M 52.037 36.201 C 49.817 38.512, 48 41.122, 48 42 C 48 44.201, 55.672 52, 57.837 52 C 60.739 52, 62.076 50.018, 60.807 47.597 C 60.203 46.444, 59.099 45.140, 58.354 44.700 C 57.609 44.260, 57 43.045, 57 42 C 57 40.955, 57.609 39.740, 58.354 39.300 C 60.709 37.909, 62.056 34.456, 60.753 33.153 C 58.660 31.060, 56.127 31.945, 52.037 36.201 M 89.247 33.153 C 87.944 34.456, 89.291 37.909, 91.646 39.300 C 92.391 39.740, 93 40.955, 93 42 C 93 43.045, 92.391 44.260, 91.646 44.700 C 90.901 45.140, 89.797 46.444, 89.193 47.597 C 87.924 50.018, 89.261 52, 92.163 52 C 94.328 52, 102 44.201, 102 42 C 102 39.799, 94.328 32, 92.163 32 C 91.193 32, 89.881 32.519, 89.247 33.153 M 114 36 C 114 38.667, 114.333 39, 117 39 C 119.667 39, 120 38.667, 120 36 C 120 33.333, 119.667 33, 117 33 C 114.333 33, 114 33.333, 114 36 M 114 47.836 C 114 49.536, 114.636 51.030, 115.500 51.362 C 116.490 51.742, 117 53.308, 117 55.969 C 117 59.794, 117.155 60, 120.044 60 L 123.088 60 122.794 52.750 L 122.500 45.500 118.250 45.193 C 114.141 44.895, 114 44.983, 114 47.836 M 91.037 78.201 C 88.817 80.512, 87 83.122, 87 84 C 87 86.201, 94.672 94, 96.837 94 C 99.739 94, 101.076 92.018, 99.807 89.597 C 99.203 88.444, 98.099 87.140, 97.354 86.700 C 96.609 86.260, 96 85.045, 96 84 C 96 82.955, 96.609 81.740, 97.354 81.300 C 99.709 79.909, 101.056 76.456, 99.753 75.153 C 97.660 73.060, 95.127 73.945, 91.037 78.201 M 114.156 74.694 C 112.608 75.311, 106 88.615, 106 91.115 C 106 93.082, 108.329 94.195, 110.611 93.319 C 112.351 92.651, 119 79.627, 119 76.885 C 119 75.593, 116.654 73.616, 115.668 74.079 C 115.576 74.122, 114.895 74.399, 114.156 74.694 M 128.247 75.153 C 126.944 76.456, 128.291 79.909, 130.646 81.300 C 131.391 81.740, 132 82.955, 132 84 C 132 85.045, 131.391 86.260, 130.646 86.700 C 129.901 87.140, 128.797 88.444, 128.193 89.597 C 126.924 92.018, 128.261 94, 131.163 94 C 133.328 94, 141 86.201, 141 84 C 141 81.799, 133.328 74, 131.163 74 C 130.193 74, 128.881 74.519, 128.247 75.153 M 54 93 C 54 95.667, 54.333 96, 57 96 C 59.667 96, 60 95.667, 60 93 C 60 90.333, 59.667 90, 57 90 C 54.333 90, 54 90.333, 54 93 M 66 93 C 66 95.667, 66.333 96, 69 96 C 71.667 96, 72 95.667, 72 93 C 72 90.333, 71.667 90, 69 90 C 66.333 90, 66 90.333, 66 93 M 78 93 C 78 95.667, 78.333 96, 81 96 C 83.667 96, 84 95.667, 84 93 C 84 90.333, 83.667 90, 81 90 C 78.333 90, 78 90.333, 78 93" stroke="none" fill="#efd741" fill-rule="evenodd"/><path d="M 27.118 9.118 L 23 13.235 22.968 65.868 C 22.941 110.562, 22.715 118.793, 21.468 120.441 C 20.661 121.509, 19.986 123.309, 19.968 124.441 C 19.951 125.574, 19.276 127.374, 18.468 128.441 C 17.661 129.509, 16.986 131.309, 16.968 132.441 C 16.951 133.574, 16.276 135.374, 15.468 136.441 C 14.661 137.509, 13.986 139.309, 13.968 140.441 C 13.951 141.574, 13.276 143.374, 12.468 144.441 C 11.661 145.509, 10.986 147.309, 10.968 148.441 C 10.951 149.574, 10.276 151.374, 9.468 152.441 C 8.661 153.509, 7.986 155.309, 7.968 156.441 C 7.951 157.574, 7.276 159.374, 6.468 160.441 C 5.455 161.781, 5 164.919, 5 170.573 L 5 178.765 9.118 182.882 L 13.235 187 96 187 L 178.765 187 182.882 182.882 L 187 178.765 187 170.573 C 187 164.919, 186.545 161.781, 185.532 160.441 C 184.724 159.374, 184.049 157.574, 184.032 156.441 C 184.014 155.309, 183.339 153.509, 182.532 152.441 C 181.724 151.374, 181.049 149.574, 181.032 148.441 C 181.014 147.309, 180.339 145.509, 179.532 144.441 C 178.724 143.374, 178.049 141.574, 178.032 140.441 C 178.014 139.309, 177.339 137.509, 176.532 136.441 C 175.724 135.374, 175.049 133.574, 175.032 132.441 C 175.014 131.309, 174.339 129.509, 173.532 128.441 C 172.724 127.374, 172.049 125.574, 172.032 124.441 C 172.014 123.309, 171.339 121.509, 170.532 120.441 C 169.285 118.793, 169.059 110.562, 169.032 65.868 L 169 13.235 164.882 9.118 L 160.765 5 96 5 L 31.235 5 27.118 9.118 M 32.914 14.933 L 29.981 17.865 30.241 67.183 L 30.500 116.500 96 116.500 L 161.500 116.500 161.759 67.183 L 162.019 17.865 159.086 14.933 L 156.154 12 96 12 L 35.846 12 32.914 14.933 M 37.200 19.200 C 35.473 20.927, 35.473 108.073, 37.200 109.800 C 38.932 111.532, 153.068 111.532, 154.800 109.800 C 156.527 108.073, 156.527 20.927, 154.800 19.200 C 153.068 17.468, 38.932 17.468, 37.200 19.200 M 42 64.500 L 42 105 96 105 L 150 105 150 64.500 L 150 24 96 24 L 42 24 42 64.500 M 52.703 36.792 C 50.666 38.878, 49 41.262, 49 42.089 C 49 42.917, 50.706 45.260, 52.792 47.297 C 58.873 53.235, 62.635 51.483, 57.812 44.960 L 55.624 42 57.812 39.040 C 62.673 32.466, 58.654 30.697, 52.703 36.792 M 90 34.540 C 90 35.388, 90.985 37.413, 92.188 39.040 L 94.376 42 92.188 44.960 C 87.327 51.534, 91.346 53.303, 97.297 47.208 C 99.334 45.122, 101 42.738, 101 41.911 C 101 39.870, 93.836 33, 91.708 33 C 90.769 33, 90 33.693, 90 34.540 M 114.389 34.430 C 113.393 37.025, 114.788 39.169, 117.246 38.820 C 118.898 38.585, 119.500 37.833, 119.500 36 C 119.500 34.167, 118.898 33.415, 117.246 33.180 C 115.893 32.988, 114.750 33.488, 114.389 34.430 M 114.667 45.667 C 113.494 46.839, 113.952 49.874, 115.426 50.700 C 116.210 51.140, 116.997 53.300, 117.176 55.500 C 117.461 59.013, 117.804 59.500, 120 59.500 C 122.336 59.500, 122.519 59.130, 122.796 53.868 C 123.015 49.714, 122.668 47.811, 121.475 46.618 C 119.843 44.986, 115.899 44.435, 114.667 45.667 M 91.703 78.792 C 89.666 80.878, 88 83.262, 88 84.089 C 88 84.917, 89.706 87.260, 91.792 89.297 C 97.873 95.235, 101.635 93.483, 96.812 86.960 L 94.624 84 96.812 81.040 C 101.673 74.466, 97.654 72.697, 91.703 78.792 M 113.772 76.750 C 112.013 78.751, 107 89.142, 107 90.787 C 107 92.638, 109.004 93.241, 110.641 91.883 C 112.921 89.991, 118.276 78.161, 117.623 76.460 C 116.880 74.524, 115.646 74.617, 113.772 76.750 M 129 76.540 C 129 77.388, 129.985 79.413, 131.188 81.040 L 133.376 84 131.188 86.960 C 126.327 93.534, 130.346 95.303, 136.297 89.208 C 138.334 87.122, 140 84.738, 140 83.911 C 140 81.870, 132.836 75, 130.708 75 C 129.769 75, 129 75.693, 129 76.540 M 54.389 91.430 C 53.393 94.025, 54.788 96.169, 57.246 95.820 C 58.898 95.585, 59.500 94.833, 59.500 93 C 59.500 91.167, 58.898 90.415, 57.246 90.180 C 55.893 89.988, 54.750 90.488, 54.389 91.430 M 66.389 91.430 C 65.393 94.025, 66.788 96.169, 69.246 95.820 C 70.898 95.585, 71.500 94.833, 71.500 93 C 71.500 91.167, 70.898 90.415, 69.246 90.180 C 67.893 89.988, 66.750 90.488, 66.389 91.430 M 78.389 91.430 C 77.393 94.025, 78.788 96.169, 81.246 95.820 C 82.898 95.585, 83.500 94.833, 83.500 93 C 83.500 91.167, 82.898 90.415, 81.246 90.180 C 79.893 89.988, 78.750 90.488, 78.389 91.430 M 29.232 123.836 C 28.534 124.278, 27.555 125.959, 27.057 127.570 C 26.558 129.182, 25.182 132.975, 24 136 C 22.818 139.025, 21.468 142.625, 21 144 C 20.532 145.375, 19.182 148.975, 18 152 C 14.891 159.954, 13.987 163.170, 14.588 164.142 C 14.880 164.614, 28.055 165, 43.868 165 C 67.598 165, 72.957 165.256, 74.559 166.468 C 77.400 168.617, 114.600 168.617, 117.441 166.468 C 119.043 165.256, 124.402 165, 148.132 165 C 163.945 165, 177.120 164.614, 177.412 164.142 C 178.013 163.170, 177.109 159.954, 174 152 C 172.818 148.975, 171.468 145.375, 171 144 C 170.532 142.625, 169.182 139.025, 168 136 C 166.818 132.975, 165.442 129.182, 164.943 127.570 C 164.445 125.959, 163.466 124.278, 162.768 123.836 C 162.071 123.393, 132.025 123.031, 96 123.031 C 59.975 123.031, 29.929 123.393, 29.232 123.836 M 36.389 130.430 C 35.393 133.025, 36.788 135.169, 39.246 134.820 C 40.898 134.585, 41.500 133.833, 41.500 132 C 41.500 130.167, 40.898 129.415, 39.246 129.180 C 37.893 128.988, 36.750 129.488, 36.389 130.430 M 48.389 130.430 C 47.393 133.025, 48.788 135.169, 51.246 134.820 C 52.898 134.585, 53.500 133.833, 53.500 132 C 53.500 130.167, 52.898 129.415, 51.246 129.180 C 49.893 128.988, 48.750 129.488, 48.389 130.430 M 63.382 130.447 C 62.066 133.877, 63.737 135.119, 69.239 134.803 C 74.103 134.523, 74.500 134.312, 74.500 132 C 74.500 129.688, 74.103 129.477, 69.239 129.197 C 65.210 128.966, 63.838 129.258, 63.382 130.447 M 84.382 130.447 C 83.066 133.877, 84.737 135.119, 90.239 134.803 C 95.103 134.523, 95.500 134.312, 95.500 132 C 95.500 129.688, 95.103 129.477, 90.239 129.197 C 86.210 128.966, 84.838 129.258, 84.382 130.447 M 105.382 130.447 C 104.066 133.877, 105.737 135.119, 111.239 134.803 C 116.103 134.523, 116.500 134.312, 116.500 132 C 116.500 129.688, 116.103 129.477, 111.239 129.197 C 107.210 128.966, 105.838 129.258, 105.382 130.447 M 126.382 130.447 C 125.066 133.877, 126.737 135.119, 132.239 134.803 C 137.103 134.523, 137.500 134.312, 137.500 132 C 137.500 129.688, 137.103 129.477, 132.239 129.197 C 128.210 128.966, 126.838 129.258, 126.382 130.447 M 147.382 130.447 C 146.066 133.877, 147.737 135.119, 153.239 134.803 C 158.103 134.523, 158.500 134.312, 158.500 132 C 158.500 129.688, 158.103 129.477, 153.239 129.197 C 149.210 128.966, 147.838 129.258, 147.382 130.447 M 30.377 142.459 C 28.916 146.267, 30.606 147.094, 39.234 146.791 C 47.307 146.507, 47.500 146.442, 47.500 144 C 47.500 141.558, 47.307 141.493, 39.234 141.209 C 32.528 140.973, 30.857 141.209, 30.377 142.459 M 57.382 142.447 C 56.066 145.877, 57.737 147.119, 63.239 146.803 C 68.103 146.523, 68.500 146.312, 68.500 144 C 68.500 141.688, 68.103 141.477, 63.239 141.197 C 59.210 140.966, 57.838 141.258, 57.382 142.447 M 78.382 142.447 C 77.066 145.877, 78.737 147.119, 84.239 146.803 C 89.103 146.523, 89.500 146.312, 89.500 144 C 89.500 141.688, 89.103 141.477, 84.239 141.197 C 80.210 140.966, 78.838 141.258, 78.382 142.447 M 99.382 142.447 C 98.066 145.877, 99.737 147.119, 105.239 146.803 C 110.103 146.523, 110.500 146.312, 110.500 144 C 110.500 141.688, 110.103 141.477, 105.239 141.197 C 101.210 140.966, 99.838 141.258, 99.382 142.447 M 120.382 142.447 C 119.066 145.877, 120.737 147.119, 126.239 146.803 C 131.103 146.523, 131.500 146.312, 131.500 144 C 131.500 141.688, 131.103 141.477, 126.239 141.197 C 122.210 140.966, 120.838 141.258, 120.382 142.447 M 141.376 142.464 C 141.051 143.309, 141.051 144.691, 141.376 145.536 C 141.861 146.802, 143.690 147.022, 151.733 146.786 C 161.408 146.503, 161.500 146.476, 161.500 144 C 161.500 141.524, 161.408 141.497, 151.733 141.214 C 143.690 140.978, 141.861 141.198, 141.376 142.464 M 27.382 154.447 C 26.066 157.877, 27.737 159.119, 33.239 158.803 C 38.103 158.523, 38.500 158.312, 38.500 156 C 38.500 153.688, 38.103 153.477, 33.239 153.197 C 29.210 152.966, 27.838 153.258, 27.382 154.447 M 48.382 154.447 C 47.066 157.877, 48.737 159.119, 54.239 158.803 C 59.103 158.523, 59.500 158.312, 59.500 156 C 59.500 153.688, 59.103 153.477, 54.239 153.197 C 50.210 152.966, 48.838 153.258, 48.382 154.447 M 69.368 154.483 C 69.048 155.318, 69.048 156.682, 69.368 157.517 C 69.871 158.828, 73.499 158.997, 96.225 158.767 L 122.500 158.500 122.500 156 L 122.500 153.500 96.225 153.233 C 73.499 153.003, 69.871 153.172, 69.368 154.483 M 132.382 154.447 C 131.066 157.877, 132.737 159.119, 138.239 158.803 C 143.103 158.523, 143.500 158.312, 143.500 156 C 143.500 153.688, 143.103 153.477, 138.239 153.197 C 134.210 152.966, 132.838 153.258, 132.382 154.447 M 153.382 154.447 C 152.066 157.877, 153.737 159.119, 159.239 158.803 C 164.103 158.523, 164.500 158.312, 164.500 156 C 164.500 153.688, 164.103 153.477, 159.239 153.197 C 155.210 152.966, 153.838 153.258, 153.382 154.447 M 12.513 171.979 C 11.684 173.321, 13.552 176.573, 16.230 178.449 C 18.185 179.818, 27.570 180, 96.299 180 L 174.154 180 177.159 176.995 C 178.811 175.343, 179.977 173.430, 179.749 172.745 C 179.433 171.798, 172.348 171.437, 150.111 171.235 C 125.094 171.008, 120.669 171.188, 119.372 172.485 C 117.134 174.723, 74.880 174.737, 72.643 172.500 C 71.378 171.236, 66.586 171, 42.130 171 C 24.276 171, 12.885 171.377, 12.513 171.979" stroke="none" fill="#343a42" fill-rule="evenodd"/></svg>